<?xml version="1.0" encoding="UTF-8"?>
<svg id="Layer_2" data-name="Layer 2" xmlns="http://www.w3.org/2000/svg" width="217.17" height="143.45" viewBox="0 0 217.17 143.45">
  <g id="Layer_1-2" data-name="Layer 1">
    <path d="m88.59,143.4L9.7,123.86c-5.5-.59-9.7-5.61-9.7-11.61V36.88c0-5.57,3.63-10.36,8.67-11.44L87.56.23c6.66-1.43,12.86,4.08,12.86,11.44v120.12c0,6.9-5.5,12.29-11.83,11.61" style="fill: #ae2078; stroke-width: 0px;"/>
    <g>
      <path d="m104.59,128.69l4.47-.28c.1.73.3,1.28.59,1.66.48.62,1.17.92,2.07.92.67,0,1.18-.16,1.55-.47.37-.31.55-.68.55-1.09s-.18-.75-.52-1.06c-.34-.31-1.15-.6-2.41-.88-2.06-.46-3.53-1.08-4.41-1.85-.88-.77-1.32-1.75-1.32-2.93,0-.78.22-1.52.68-2.21.45-.69,1.13-1.24,2.04-1.64.91-.4,2.16-.6,3.74-.6,1.94,0,3.43.37,4.45,1.09s1.63,1.87,1.82,3.45l-4.43.26c-.12-.68-.37-1.18-.74-1.5-.37-.31-.89-.47-1.56-.47-.55,0-.96.12-1.23.35-.28.23-.42.51-.42.84,0,.24.12.46.34.65.22.2.75.39,1.58.56,2.05.44,3.52.89,4.41,1.34.89.45,1.53,1.01,1.94,1.68.4.67.61,1.42.61,2.25,0,.97-.27,1.87-.81,2.69s-1.29,1.45-2.26,1.87c-.97.42-2.19.64-3.66.64-2.58,0-4.38-.5-5.37-1.5-1-.99-1.56-2.26-1.69-3.79" style="fill: #231f57; stroke-width: 0px;"/>
      <polygon points="119.21 118.51 124.43 118.51 127.49 123.64 130.56 118.51 135.75 118.51 129.84 127.35 129.84 133.72 125.13 133.72 125.13 127.35 119.21 118.51" style="fill: #231f57; stroke-width: 0px;"/>
      <path d="m135.54,128.69l4.47-.28c.1.73.3,1.28.59,1.66.48.62,1.17.92,2.07.92.67,0,1.18-.16,1.55-.47.37-.31.55-.68.55-1.09s-.18-.75-.52-1.06c-.34-.31-1.15-.6-2.41-.88-2.06-.46-3.53-1.08-4.41-1.85-.88-.77-1.33-1.75-1.33-2.93,0-.78.23-1.52.68-2.21.46-.69,1.14-1.24,2.04-1.64.91-.4,2.16-.6,3.74-.6,1.94,0,3.43.37,4.45,1.09s1.62,1.87,1.82,3.45l-4.43.26c-.12-.68-.37-1.18-.74-1.5-.38-.31-.9-.47-1.56-.47-.55,0-.96.12-1.23.35-.28.23-.42.51-.42.84,0,.24.12.46.34.65.22.2.75.39,1.58.56,2.05.44,3.52.89,4.41,1.34.89.45,1.53,1.01,1.94,1.68.4.67.61,1.42.61,2.25,0,.97-.27,1.87-.81,2.69s-1.29,1.45-2.26,1.87c-.97.42-2.19.64-3.66.64-2.58,0-4.38-.5-5.37-1.5-1-.99-1.56-2.26-1.69-3.79" style="fill: #231f57; stroke-width: 0px;"/>
      <polygon points="150.62 118.51 164.9 118.51 164.9 122.27 160.11 122.27 160.11 133.72 155.41 133.72 155.41 122.27 150.62 122.27 150.62 118.51" style="fill: #231f57; stroke-width: 0px;"/>
      <polygon points="167.02 118.51 179.61 118.51 179.61 121.76 171.73 121.76 171.73 124.17 179.04 124.17 179.04 127.28 171.73 127.28 171.73 130.28 179.84 130.28 179.84 133.72 167.02 133.72 167.02 118.51" style="fill: #231f57; stroke-width: 0px;"/>
      <polygon points="182.31 118.51 188.49 118.51 190.88 127.76 193.24 118.51 199.42 118.51 199.42 133.72 195.57 133.72 195.57 122.12 192.61 133.72 189.12 133.72 186.16 122.12 186.16 133.72 182.31 133.72 182.31 118.51" style="fill: #231f57; stroke-width: 0px;"/>
      <polygon points="202.4 118.51 214.99 118.51 214.99 121.76 207.11 121.76 207.11 124.17 214.42 124.17 214.42 127.28 207.11 127.28 207.11 130.28 215.22 130.28 215.22 133.72 202.4 133.72 202.4 118.51" style="fill: #231f57; stroke-width: 0px;"/>
    </g>
    <polygon points="58.95 46.04 40.87 50.18 35.21 27.19 66.61 18.31 88.2 18.31 88.2 126.3 58.95 126.3 58.95 46.04" style="fill: #fff; stroke-width: 0px;"/>
    <g>
      <polygon points="72.94 33.92 134.89 33.92 134.89 52.07 94.07 52.07 94.07 63.73 131.03 63.73 131.03 80.57 94.07 80.57 94.07 92.78 135.44 92.78 135.44 110.93 72.94 110.93 72.94 33.92" style="fill: #231f57; stroke-width: 0px;"/>
      <path d="m146.32,33.92h36.42c11.77,0,19.91,3.08,25.08,8.36,4.51,4.4,6.82,10.34,6.82,17.93v.22c0,11.77-6.27,19.58-15.85,23.65l18.38,26.85h-24.65l-15.51-23.33h-9.35v23.33h-21.34V33.92Zm35.43,36.97c7.26,0,11.44-3.52,11.44-9.13v-.22c0-6.05-4.4-9.13-11.55-9.13h-13.97v18.48h14.09Z" style="fill: #231f57; stroke-width: 0px;"/>
    </g>
  </g>
</svg>